# xmcd
#
# Track frame offsets: 
#        175
#        14575
#        30927
#        45802
#        57287
#        71052
#        85277
#        98650
#        110350
#        126825
#        146212
#        161175
#        175775
#        190950
#        206200
#        225852
#        243252
#        259277
#        274615
#        289102
#        305787
#
# Disc length: 4288 seconds
#
# Revision: 3
# Processed by: cddbd v1.5.2PL0 Copyright (c) Steve Scherf et al.
# Submitted via: ExactAudioCopy v0.99pb4
#
DISCID=2b10be15
DTITLE=Fausto Papetti - Grand Collection
DYEAR=1999
DGENRE=Instrumental
TTITLE0=I Just Called To Say I Love You
TTITLE1=Bossa For My Lady
TTITLE2=Mask The Knife
TTITLE3=Love Me From "Goodfather"
TTITLE4=Adagio Di Albioni
TTITLE5=The Windmiles Of You Mind
TTITLE6=Love Story
TTITLE7=Strangers In The Night
TTITLE8=This Is Not America
TTITLE9=Reality
TTITLE10=Theme Frome Paradise
TTITLE11=Women In Love
TTITLE12=Emanuelle
TTITLE13=Your Eyes
TTITLE14=Ditencello Vuje
TTITLE15=Aranjues Mon Amour
TTITLE16=Feelings
TTITLE17=Hill Street Blues
TTITLE18=Live is Live
TTITLE19=Part - Time Lover
TTITLE20=Yesterday
EXTD=
EXTT0=
EXTT1=
EXTT2=
EXTT3=
EXTT4=
EXTT5=
EXTT6=
EXTT7=
EXTT8=
EXTT9=
EXTT10=
EXTT11=
EXTT12=
EXTT13=
EXTT14=
EXTT15=
EXTT16=
EXTT17=
EXTT18=
EXTT19=
EXTT20=
PLAYORDER=
